<svg width="106" height="113" viewBox="0 0 106 113" fill="none" xmlns="http://www.w3.org/2000/svg">
<path d="M0.2929 7.29289C-0.0976257 7.68341 -0.0976257 8.31658 0.2929 8.7071L6.65686 15.0711C7.04739 15.4616 7.68055 15.4616 8.07108 15.0711C8.4616 14.6805 8.4616 14.0474 8.07108 13.6568L2.41422 8L8.07108 2.34314C8.4616 1.95262 8.4616 1.31945 8.07108 0.928928C7.68055 0.538404 7.04739 0.538404 6.65686 0.928928L0.2929 7.29289ZM104 112C104 112.552 104.448 113 105 113C105.552 113 106 112.552 106 112L104 112ZM1.00001 9C57.8853 9 104 55.1147 104 112L106 112C106 54.0101 58.9899 7 1.00001 7L1.00001 9Z" fill="black"/>
</svg>
